# xmcd
#
# Track frame offsets:
#	150
#	29852
#	60620
#	84766
#	107024
#	131332
#	157407
#	186770
#	212235
#	242643
#	272071
#	300480
#	323602
#
# Disc length: 4629 seconds
#
# Revision: 0
# Processed by: cddbd v1.5.2PL0 Copyright (c) Steve Scherf et al.
# Submitted via: audiograbber 1.83.01
#
DISCID=b212130d
DTITLE=Andreas Franz - Syndikat der Spinne
DYEAR=2002
DGENRE=Hörbuch
TTITLE0=205
TTITLE1=206
TTITLE2=207
TTITLE3=208
TTITLE4=209
TTITLE5=210
TTITLE6=211
TTITLE7=212
TTITLE8=213
TTITLE9=214
TTITLE10=215
TTITLE11=216
TTITLE12=217
EXTD=
EXTT0=
EXTT1=
EXTT2=
EXTT3=
EXTT4=
EXTT5=
EXTT6=
EXTT7=
EXTT8=
EXTT9=
EXTT10=
EXTT11=
EXTT12=
PLAYORDER=
